<svg width="1920" height="891" viewBox="0 0 1920 891" fill="none" xmlns="http://www.w3.org/2000/svg">
<g clip-path="url(#clip0_675_10758)">
<rect width="1920" height="891" fill="#233654"/>
<rect width="83.8871" height="15.6863" rx="7.84314" transform="matrix(-0.707107 -0.707107 -0.707419 0.706794 1459.41 731.317)" fill="url(#paint0_linear_675_10758)"/>
<ellipse opacity="0.1" cx="960" cy="470.5" rx="530" ry="529.5" fill="#4488F1"/>
<ellipse opacity="0.1" cx="960" cy="470.5" rx="410" ry="409.5" fill="#4488F1"/>
<ellipse opacity="0.1" cx="960" cy="470.5" rx="295" ry="294.5" fill="#4488F1"/>
<ellipse cx="960.199" cy="470.4" rx="223.705" ry="223.6" fill="#4488F1"/>
<path fill-rule="evenodd" clip-rule="evenodd" d="M795.526 319.053C826.368 285.545 867.315 261.475 913.536 251.671C922.284 249.816 931.22 248.472 940.312 247.671C985.864 247.882 1020.7 258.187 994.616 283.405C987.167 290.606 979.515 296.592 972.39 302.165L972.39 302.165C953.771 316.729 938.749 328.479 940.344 351.764C942.551 383.959 944.316 392.779 974.761 405.569C1005.21 418.359 1006.09 446.143 985.791 456.728C970.642 458.051 932.843 454.611 902.839 430.266C886.548 417.048 886.907 406.41 887.21 397.447C887.604 385.776 887.902 376.947 851.215 368.964C811.843 360.397 796.208 338.992 795.526 319.053ZM850.365 665.239C783.413 627.452 737.884 556.184 736.525 474.176C736.507 473.077 736.497 471.976 736.494 470.873L736.494 470.636L736.494 470.4C736.494 465.426 736.656 460.491 736.976 455.598C745.989 458.475 753.155 463.976 755.909 473.487C759.321 485.269 760.389 500.376 761.47 515.665C763.464 543.87 765.501 572.696 782.383 582.42C808.416 597.415 856.069 626.964 851.657 657.836C851.286 660.426 850.851 662.893 850.365 665.239ZM1034.95 681.214C1030.26 670.042 1027.76 654.556 1031.68 634.461C1033.67 624.25 1035.82 615.41 1037.76 607.457C1045.29 576.596 1049.55 559.112 1028.15 526.851C1001.23 486.277 1028.59 448.789 1057.27 443.938C1085.95 439.087 1139.78 434.677 1148.16 494.656C1149.53 504.418 1150.85 512.895 1152.02 520.41L1152.02 520.415L1152.02 520.416C1156.68 550.431 1158.96 565.103 1152.31 585.028C1125.79 629.34 1084.36 663.709 1034.95 681.214Z" fill="#5BB85B"/>
<path d="M683.902 766.756C685.001 764.683 687.973 764.683 689.072 766.756L693.67 775.424C693.944 775.941 694.367 776.364 694.884 776.638L703.556 781.233C705.63 782.332 705.63 785.302 703.556 786.401L694.884 790.997C694.367 791.271 693.944 791.694 693.67 792.211L689.072 800.879C687.973 802.951 685.001 802.951 683.902 800.879L679.304 792.211C679.03 791.694 678.607 791.271 678.09 790.997L669.418 786.401C667.344 785.302 667.344 782.332 669.418 781.233L678.09 776.638C678.607 776.364 679.03 775.941 679.304 775.424L683.902 766.756Z" fill="#DB6951"/>
<path d="M684.863 773.096C685.553 771.794 687.421 771.794 688.112 773.096L691.001 778.543C691.173 778.868 691.439 779.134 691.764 779.306L697.214 782.194C698.517 782.885 698.517 784.751 697.214 785.441L691.764 788.329C691.439 788.502 691.173 788.767 691.001 789.092L688.112 794.539C687.421 795.842 685.553 795.842 684.863 794.539L681.973 789.092C681.801 788.767 681.535 788.502 681.21 788.329L675.76 785.441C674.457 784.751 674.457 782.885 675.76 782.194L681.21 779.306C681.535 779.134 681.801 778.868 681.973 778.543L684.863 773.096Z" fill="#FBBF78"/>
<path d="M642.282 400.359C643.382 398.286 646.353 398.286 647.453 400.359L652.05 409.026C652.325 409.543 652.748 409.966 653.265 410.24L661.937 414.836C664.011 415.935 664.011 418.905 661.937 420.004L653.265 424.599C652.748 424.873 652.325 425.296 652.05 425.813L647.453 434.481C646.353 436.554 643.382 436.554 642.282 434.481L637.685 425.813C637.411 425.296 636.987 424.873 636.47 424.599L627.798 420.004C625.725 418.905 625.725 415.935 627.798 414.836L636.47 410.24C636.987 409.966 637.411 409.543 637.685 409.026L642.282 400.359Z" fill="#DB6951"/>
<path d="M643.243 406.698C643.934 405.396 645.801 405.396 646.492 406.698L649.381 412.145C649.554 412.47 649.82 412.736 650.145 412.908L655.594 415.796C656.897 416.487 656.897 418.353 655.594 419.044L650.145 421.932C649.82 422.104 649.554 422.37 649.381 422.695L646.492 428.141C645.801 429.444 643.934 429.444 643.243 428.141L640.354 422.695C640.181 422.37 639.915 422.104 639.59 421.932L634.141 419.044C632.838 418.353 632.838 416.487 634.141 415.796L639.59 412.908C639.915 412.736 640.181 412.47 640.354 412.145L643.243 406.698Z" fill="#FBBF78"/>
<path d="M1284.98 318.755C1286.08 316.682 1289.06 316.682 1290.15 318.755L1294.75 327.422C1295.03 327.939 1295.45 328.362 1295.97 328.636L1304.64 333.232C1306.71 334.331 1306.71 337.301 1304.64 338.4L1295.97 342.995C1295.45 343.269 1295.03 343.692 1294.75 344.209L1290.15 352.877C1289.06 354.95 1286.08 354.95 1284.98 352.877L1280.39 344.209C1280.11 343.692 1279.69 343.269 1279.17 342.995L1270.5 338.4C1268.43 337.301 1268.43 334.331 1270.5 333.232L1279.17 328.636C1279.69 328.362 1280.11 327.939 1280.39 327.422L1284.98 318.755Z" fill="#DB6951"/>
<path d="M1285.95 325.095C1286.64 323.792 1288.5 323.792 1289.19 325.095L1292.08 330.542C1292.26 330.866 1292.52 331.132 1292.85 331.304L1298.3 334.192C1299.6 334.883 1299.6 336.749 1298.3 337.44L1292.85 340.328C1292.52 340.5 1292.26 340.766 1292.08 341.091L1289.19 346.538C1288.5 347.84 1286.64 347.84 1285.95 346.538L1283.06 341.091C1282.88 340.766 1282.62 340.5 1282.29 340.328L1276.84 337.44C1275.54 336.749 1275.54 334.883 1276.84 334.192L1282.29 331.304C1282.62 331.132 1282.88 330.866 1283.06 330.542L1285.95 325.095Z" fill="#FBBF78"/>
<path d="M710.286 237.285C711.738 234.547 715.662 234.547 717.114 237.285L723.186 248.731C723.548 249.414 724.106 249.973 724.79 250.335L736.242 256.403C738.98 257.855 738.98 261.777 736.242 263.228L724.79 269.297C724.106 269.659 723.548 270.218 723.186 270.9L717.114 282.347C715.662 285.085 711.738 285.085 710.286 282.347L704.214 270.9C703.852 270.218 703.293 269.659 702.61 269.297L691.158 263.228C688.419 261.777 688.419 257.855 691.158 256.403L702.61 250.335C703.293 249.973 703.852 249.414 704.214 248.731L710.286 237.285Z" fill="#724AE8"/>
<path d="M711.554 245.657C712.467 243.937 714.933 243.937 715.845 245.657L719.661 252.851C719.888 253.28 720.24 253.631 720.669 253.858L727.866 257.672C729.587 258.584 729.587 261.049 727.866 261.961L720.669 265.775C720.24 266.002 719.888 266.353 719.661 266.782L715.845 273.975C714.933 275.696 712.467 275.696 711.554 273.975L707.739 266.782C707.511 266.353 707.16 266.002 706.731 265.775L699.534 261.961C697.813 261.049 697.813 258.584 699.534 257.672L706.731 253.858C707.16 253.631 707.511 253.28 707.739 252.851L711.554 245.657Z" fill="#9E86E8"/>
<path d="M743.573 737.379C744.264 736.076 746.131 736.076 746.822 737.379L749.711 742.826C749.884 743.15 750.149 743.416 750.475 743.588L755.924 746.476C757.227 747.167 757.227 749.033 755.924 749.724L750.475 752.612C750.149 752.784 749.884 753.05 749.711 753.375L746.822 758.822C746.131 760.124 744.264 760.124 743.573 758.822L740.684 753.375C740.511 753.05 740.245 752.784 739.92 752.612L734.471 749.724C733.168 749.033 733.168 747.167 734.471 746.476L739.92 743.588C740.245 743.416 740.511 743.15 740.684 742.826L743.573 737.379Z" fill="#9D84E8"/>
<path d="M557.085 336.581C557.776 335.278 559.643 335.278 560.334 336.581L563.224 342.028C563.396 342.353 563.662 342.618 563.987 342.791L569.436 345.678C570.74 346.369 570.74 348.235 569.436 348.926L563.987 351.814C563.662 351.986 563.396 352.252 563.224 352.577L560.334 358.024C559.643 359.326 557.776 359.327 557.085 358.024L554.196 352.577C554.024 352.252 553.758 351.986 553.433 351.814L547.983 348.926C546.68 348.235 546.68 346.369 547.983 345.678L553.433 342.791C553.758 342.618 554.024 342.353 554.196 342.028L557.085 336.581Z" fill="#9D84E8"/>
<path d="M1245.41 189.377C1246.1 188.074 1247.97 188.074 1248.66 189.377L1251.55 194.824C1251.72 195.149 1251.99 195.415 1252.31 195.587L1257.76 198.475C1259.06 199.165 1259.06 201.032 1257.76 201.722L1252.31 204.61C1251.99 204.782 1251.72 205.048 1251.55 205.373L1248.66 210.82C1247.97 212.123 1246.1 212.123 1245.41 210.82L1242.52 205.373C1242.35 205.048 1242.08 204.782 1241.76 204.61L1236.31 201.722C1235 201.032 1235 199.165 1236.31 198.475L1241.76 195.587C1242.08 195.415 1242.35 195.149 1242.52 194.824L1245.41 189.377Z" fill="#9D84E8"/>
<path d="M1250.21 648.577C1250.9 647.274 1252.77 647.274 1253.46 648.577L1256.35 654.024C1256.52 654.349 1256.79 654.615 1257.11 654.787L1262.56 657.675C1263.87 658.365 1263.87 660.232 1262.56 660.922L1257.11 663.81C1256.79 663.982 1256.52 664.248 1256.35 664.573L1253.46 670.02C1252.77 671.323 1250.9 671.323 1250.21 670.02L1247.32 664.573C1247.15 664.248 1246.88 663.982 1246.56 663.81L1241.11 660.922C1239.81 660.232 1239.81 658.365 1241.11 657.675L1246.56 654.787C1246.88 654.615 1247.15 654.349 1247.32 654.024L1250.21 648.577Z" fill="#9D84E8"/>
<rect width="210.921" height="15.6862" rx="7.84311" transform="matrix(-0.707107 -0.707107 -0.707423 0.706791 449.24 288.144)" fill="url(#paint1_linear_675_10758)"/>
<rect width="83.8871" height="15.6863" rx="7.84314" transform="matrix(-0.707107 -0.707107 -0.707419 0.706794 1698.41 130.317)" fill="url(#paint2_linear_675_10758)"/>
<ellipse cx="645.452" cy="322" rx="5.60263" ry="5.6" fill="#724AE8"/>
<ellipse cx="631.846" cy="702" rx="5.60264" ry="5.59996" fill="#724AE8"/>
<ellipse cx="626.243" cy="254" rx="3.2015" ry="3.2" fill="#724AE8"/>
<ellipse cx="623.041" cy="362" rx="3.2015" ry="3.20003" fill="#724AE8"/>
<ellipse cx="554.21" cy="682" rx="2.40113" ry="2.4" fill="#9F86EE"/>
<ellipse cx="611.836" cy="821.2" rx="2.40113" ry="2.39997" fill="#9F86EE"/>
<ellipse cx="727.891" cy="826" rx="2.40114" ry="2.39997" fill="#9F86EE"/>
<ellipse cx="946.394" cy="791.6" rx="2.40116" ry="2.39992" fill="#9F86EE"/>
<ellipse cx="1076.05" cy="830" rx="2.40115" ry="2.40003" fill="#9F86EE"/>
<ellipse cx="1128.08" cy="756.4" rx="2.40115" ry="2.39997" fill="#9F86EE"/>
<ellipse cx="1242.53" cy="704.4" rx="2.40118" ry="2.40006" fill="#9F86EE"/>
<ellipse cx="1325.77" cy="804.4" rx="2.40109" ry="2.39992" fill="#9F86EE"/>
<ellipse cx="1349.78" cy="594.8" rx="2.40123" ry="2.39997" fill="#9F86EE"/>
<ellipse cx="1266.54" cy="491.6" rx="2.40115" ry="2.39999" fill="#9F86EE"/>
<ellipse cx="1330.57" cy="394.8" rx="2.40115" ry="2.40002" fill="#9F86EE"/>
<ellipse cx="1301.76" cy="262" rx="2.40112" ry="2.4" fill="#9F86EE"/>
<ellipse cx="1195.31" cy="266.8" rx="2.40106" ry="2.40002" fill="#9F86EE"/>
<ellipse cx="1292.96" cy="98.8" rx="2.40112" ry="2.39999" fill="#9F86EE"/>
<ellipse cx="1128.88" cy="38" rx="2.40115" ry="2.4" fill="#9F86EE"/>
<ellipse cx="1069.65" cy="170.8" rx="2.40115" ry="2.4" fill="#9F86EE"/>
<ellipse cx="984.812" cy="173.2" rx="2.40115" ry="2.39999" fill="#9F86EE"/>
<ellipse cx="902.373" cy="64.4" rx="2.40115" ry="2.4" fill="#9F86EE"/>
<ellipse cx="727.09" cy="152.4" rx="2.40112" ry="2.4" fill="#9F86EE"/>
<ellipse cx="1130.48" cy="756.4" rx="2.40109" ry="2.39997" fill="#9F86EE"/>
<ellipse cx="575.819" cy="451.6" rx="2.40113" ry="2.39999" fill="#724AE8"/>
<ellipse cx="639.049" cy="563.6" rx="2.40114" ry="2.4" fill="#724AE8"/>
<path d="M550.459 133.793C550.902 132.736 552.098 132.736 552.541 133.793L554.392 138.217C554.503 138.481 554.673 138.696 554.882 138.836L558.374 141.181C559.209 141.742 559.209 143.258 558.374 143.819L554.882 146.164C554.673 146.304 554.503 146.519 554.392 146.783L552.541 151.207C552.098 152.264 550.902 152.264 550.459 151.207L548.608 146.783C548.497 146.519 548.327 146.304 548.118 146.164L544.626 143.819C543.791 143.258 543.791 141.742 544.626 141.181L548.118 138.836C548.327 138.696 548.497 138.481 548.608 138.217L550.459 133.793Z" fill="#9D84E8"/>
<path d="M93.459 52.7934C93.9017 51.7355 95.0983 51.7355 95.541 52.7934L97.3925 57.2167C97.5029 57.4805 97.6733 57.6963 97.8816 57.8362L101.374 60.1814C102.209 60.7422 102.209 62.2578 101.374 62.8186L97.8816 65.1638C97.6733 65.3037 97.5029 65.5195 97.3925 65.7833L95.541 70.2066C95.0983 71.2645 93.9018 71.2645 93.459 70.2066L91.6075 65.7833C91.4971 65.5195 91.3267 65.3037 91.1184 65.1638L87.6264 62.8186C86.7912 62.2578 86.7912 60.7422 87.6264 60.1814L91.1184 57.8362C91.3267 57.6963 91.4971 57.4805 91.6075 57.2167L93.459 52.7934Z" fill="#9D84E8"/>
<path d="M351.737 753.585C352.061 752.805 352.939 752.805 353.263 753.585L354.621 756.844C354.702 757.038 354.827 757.197 354.98 757.3L357.541 759.028C358.153 759.442 358.153 760.558 357.541 760.972L354.98 762.7C354.827 762.803 354.702 762.962 354.621 763.156L353.263 766.415C352.939 767.195 352.061 767.195 351.737 766.415L350.379 763.156C350.298 762.962 350.173 762.803 350.02 762.7L347.459 760.972C346.847 760.558 346.847 759.442 347.459 759.028L350.02 757.3C350.173 757.197 350.298 757.038 350.379 756.844L351.737 753.585Z" fill="#9D84E8"/>
<path d="M1534.74 417.585C1535.06 416.805 1535.94 416.805 1536.26 417.585L1537.62 420.844C1537.7 421.038 1537.83 421.197 1537.98 421.3L1540.54 423.028C1541.15 423.442 1541.15 424.558 1540.54 424.972L1537.98 426.7C1537.83 426.803 1537.7 426.962 1537.62 427.156L1536.26 430.415C1535.94 431.195 1535.06 431.195 1534.74 430.415L1533.38 427.156C1533.3 426.962 1533.17 426.803 1533.02 426.7L1530.46 424.972C1529.85 424.558 1529.85 423.442 1530.46 423.028L1533.02 421.3C1533.17 421.197 1533.3 421.038 1533.38 420.844L1534.74 417.585Z" fill="#9D84E8"/>
<path d="M1804.74 695.585C1805.06 694.805 1805.94 694.805 1806.26 695.585L1807.62 698.844C1807.7 699.038 1807.83 699.197 1807.98 699.3L1810.54 701.028C1811.15 701.442 1811.15 702.558 1810.54 702.972L1807.98 704.7C1807.83 704.803 1807.7 704.962 1807.62 705.156L1806.26 708.415C1805.94 709.195 1805.06 709.195 1804.74 708.415L1803.38 705.156C1803.3 704.962 1803.17 704.803 1803.02 704.7L1800.46 702.972C1799.85 702.558 1799.85 701.442 1800.46 701.028L1803.02 699.3C1803.17 699.197 1803.3 699.038 1803.38 698.844L1804.74 695.585Z" fill="#9D84E8"/>
<path d="M1471.74 121.585C1472.06 120.805 1472.94 120.805 1473.26 121.585L1474.62 124.844C1474.7 125.038 1474.83 125.197 1474.98 125.3L1477.54 127.028C1478.15 127.442 1478.15 128.558 1477.54 128.972L1474.98 130.7C1474.83 130.803 1474.7 130.962 1474.62 131.156L1473.26 134.415C1472.94 135.195 1472.06 135.195 1471.74 134.415L1470.38 131.156C1470.3 130.962 1470.17 130.803 1470.02 130.7L1467.46 128.972C1466.85 128.558 1466.85 127.442 1467.46 127.028L1470.02 125.3C1470.17 125.197 1470.3 125.038 1470.38 124.844L1471.74 121.585Z" fill="#9D84E8"/>
<path d="M1816.04 164.555C1817.14 162.482 1820.11 162.482 1821.21 164.555L1825.81 173.222C1826.08 173.739 1826.5 174.162 1827.02 174.436L1835.69 179.032C1837.77 180.131 1837.77 183.101 1835.69 184.2L1827.02 188.795C1826.5 189.069 1826.08 189.492 1825.81 190.009L1821.21 198.677C1820.11 200.75 1817.14 200.75 1816.04 198.677L1811.44 190.009C1811.17 189.492 1810.74 189.069 1810.23 188.795L1801.56 184.2C1799.48 183.101 1799.48 180.131 1801.56 179.032L1810.23 174.436C1810.74 174.162 1811.17 173.739 1811.44 173.222L1816.04 164.555Z" fill="#DB6951"/>
<path d="M1817 170.895C1817.69 169.592 1819.56 169.592 1820.25 170.895L1823.14 176.341C1823.31 176.666 1823.58 176.932 1823.9 177.104L1829.35 179.992C1830.65 180.683 1830.65 182.549 1829.35 183.24L1823.9 186.128C1823.58 186.3 1823.31 186.566 1823.14 186.891L1820.25 192.338C1819.56 193.64 1817.69 193.64 1817 192.338L1814.11 186.891C1813.94 186.566 1813.67 186.3 1813.35 186.128L1807.9 183.24C1806.59 182.549 1806.59 180.683 1807.9 179.992L1813.35 177.104C1813.67 176.932 1813.94 176.666 1814.11 176.341L1817 170.895Z" fill="#FBBF78"/>
<path d="M1610.89 195.907C1611.36 195.016 1612.64 195.016 1613.11 195.907L1615.09 199.63C1615.2 199.852 1615.38 200.034 1615.61 200.151L1619.33 202.125C1620.22 202.597 1620.22 203.873 1619.33 204.345L1615.61 206.319C1615.38 206.437 1615.2 206.618 1615.09 206.841L1613.11 210.564C1612.64 211.454 1611.36 211.454 1610.89 210.564L1608.91 206.841C1608.8 206.618 1608.62 206.437 1608.39 206.319L1604.67 204.345C1603.78 203.873 1603.78 202.597 1604.67 202.125L1608.39 200.151C1608.62 200.034 1608.8 199.852 1608.91 199.63L1610.89 195.907Z" fill="#DB6951"/>
<path d="M1611.3 198.63C1611.6 198.07 1612.4 198.07 1612.7 198.63L1613.94 200.97C1614.01 201.109 1614.13 201.223 1614.27 201.297L1616.61 202.538C1617.17 202.835 1617.17 203.636 1616.61 203.933L1614.27 205.173C1614.13 205.247 1614.01 205.361 1613.94 205.501L1612.7 207.841C1612.4 208.4 1611.6 208.4 1611.3 207.841L1610.06 205.501C1609.99 205.361 1609.87 205.247 1609.73 205.173L1607.39 203.933C1606.83 203.636 1606.83 202.835 1607.39 202.538L1609.73 201.297C1609.87 201.223 1609.99 201.109 1610.06 200.97L1611.3 198.63Z" fill="#FBBF78"/>
<path d="M1771.89 512.668C1772.36 511.777 1773.64 511.777 1774.11 512.668L1776.09 516.391C1776.2 516.613 1776.38 516.795 1776.61 516.912L1780.33 518.886C1781.22 519.358 1781.22 520.634 1780.33 521.106L1776.61 523.08C1776.38 523.198 1776.2 523.379 1776.09 523.602L1774.11 527.325C1773.64 528.215 1772.36 528.215 1771.89 527.325L1769.91 523.602C1769.8 523.379 1769.62 523.198 1769.39 523.08L1765.67 521.106C1764.78 520.634 1764.78 519.358 1765.67 518.886L1769.39 516.912C1769.62 516.795 1769.8 516.613 1769.91 516.391L1771.89 512.668Z" fill="#DB6951"/>
<path d="M1772.3 515.391C1772.6 514.831 1773.4 514.831 1773.7 515.391L1774.94 517.731C1775.01 517.87 1775.13 517.984 1775.27 518.058L1777.61 519.299C1778.17 519.596 1778.17 520.397 1777.61 520.694L1775.27 521.934C1775.13 522.008 1775.01 522.122 1774.94 522.262L1773.7 524.602C1773.4 525.161 1772.6 525.161 1772.3 524.602L1771.06 522.262C1770.99 522.122 1770.87 522.008 1770.73 521.934L1768.39 520.694C1767.83 520.397 1767.83 519.596 1768.39 519.299L1770.73 518.058C1770.87 517.984 1770.99 517.87 1771.06 517.731L1772.3 515.391Z" fill="#FBBF78"/>
<path d="M423.89 545.668C424.362 544.777 425.638 544.777 426.11 545.668L428.085 549.391C428.203 549.613 428.385 549.795 428.607 549.912L432.332 551.886C433.223 552.358 433.223 553.634 432.332 554.106L428.607 556.08C428.385 556.198 428.203 556.379 428.085 556.602L426.11 560.325C425.638 561.215 424.362 561.215 423.89 560.325L421.915 556.602C421.797 556.379 421.615 556.198 421.393 556.08L417.668 554.106C416.777 553.634 416.777 552.358 417.668 551.886L421.393 549.912C421.615 549.795 421.797 549.613 421.915 549.391L423.89 545.668Z" fill="#DB6951"/>
<path d="M424.302 548.391C424.599 547.831 425.401 547.831 425.698 548.391L426.939 550.731C427.013 550.87 427.127 550.984 427.267 551.058L429.608 552.299C430.167 552.596 430.167 553.397 429.608 553.694L427.267 554.934C427.127 555.008 427.013 555.122 426.939 555.262L425.698 557.602C425.401 558.161 424.599 558.161 424.302 557.602L423.061 555.262C422.987 555.122 422.873 555.008 422.733 554.934L420.393 553.694C419.833 553.397 419.833 552.596 420.393 552.299L422.733 551.058C422.873 550.984 422.987 550.87 423.061 550.731L424.302 548.391Z" fill="#FBBF78"/>
<path d="M1583.04 648.555C1584.14 646.482 1587.11 646.482 1588.21 648.555L1592.81 657.222C1593.08 657.739 1593.5 658.162 1594.02 658.436L1602.69 663.032C1604.77 664.131 1604.77 667.101 1602.69 668.2L1594.02 672.795C1593.5 673.069 1593.08 673.492 1592.81 674.009L1588.21 682.677C1587.11 684.75 1584.14 684.75 1583.04 682.677L1578.44 674.009C1578.17 673.492 1577.74 673.069 1577.23 672.795L1568.56 668.2C1566.48 667.101 1566.48 664.131 1568.56 663.032L1577.23 658.436C1577.74 658.162 1578.17 657.739 1578.44 657.222L1583.04 648.555Z" fill="#DB6951"/>
<path d="M1584 654.894C1584.69 653.592 1586.56 653.592 1587.25 654.894L1590.14 660.341C1590.31 660.666 1590.58 660.932 1590.9 661.104L1596.35 663.992C1597.65 664.683 1597.65 666.549 1596.35 667.24L1590.9 670.128C1590.58 670.3 1590.31 670.566 1590.14 670.891L1587.25 676.338C1586.56 677.64 1584.69 677.64 1584 676.338L1581.11 670.891C1580.94 670.566 1580.67 670.3 1580.35 670.128L1574.9 667.24C1573.59 666.549 1573.59 664.683 1574.9 663.992L1580.35 661.104C1580.67 660.932 1580.94 660.666 1581.11 660.341L1584 654.894Z" fill="#FBBF78"/>
<path d="M326.039 97.5547C327.139 95.4818 330.11 95.4818 331.21 97.5547L335.807 106.222C336.081 106.739 336.505 107.162 337.022 107.436L345.694 112.032C347.767 113.131 347.767 116.101 345.694 117.2L337.022 121.795C336.505 122.069 336.081 122.492 335.807 123.009L331.21 131.677C330.11 133.75 327.139 133.75 326.039 131.677L321.442 123.009C321.167 122.492 320.744 122.069 320.227 121.795L311.555 117.2C309.482 116.101 309.482 113.131 311.555 112.032L320.227 107.436C320.744 107.162 321.167 106.739 321.442 106.222L326.039 97.5547Z" fill="#DB6951"/>
<path d="M327 103.895C327.691 102.592 329.558 102.592 330.249 103.895L333.138 109.341C333.311 109.666 333.577 109.932 333.902 110.104L339.351 112.992C340.654 113.683 340.654 115.549 339.351 116.24L333.902 119.128C333.577 119.3 333.311 119.566 333.138 119.891L330.249 125.338C329.558 126.64 327.691 126.64 327 125.338L324.111 119.891C323.938 119.566 323.673 119.3 323.347 119.128L317.898 116.24C316.595 115.549 316.595 113.683 317.898 112.992L323.347 110.104C323.673 109.932 323.938 109.666 324.111 109.341L327 103.895Z" fill="#FBBF78"/>
<path d="M235.039 664.555C236.139 662.482 239.11 662.482 240.21 664.555L244.807 673.222C245.081 673.739 245.505 674.162 246.022 674.436L254.694 679.032C256.767 680.131 256.767 683.101 254.694 684.2L246.022 688.795C245.505 689.069 245.081 689.492 244.807 690.009L240.21 698.677C239.11 700.75 236.139 700.75 235.039 698.677L230.442 690.009C230.167 689.492 229.744 689.069 229.227 688.795L220.555 684.2C218.482 683.101 218.482 680.131 220.555 679.032L229.227 674.436C229.744 674.162 230.167 673.739 230.442 673.222L235.039 664.555Z" fill="#DB6951"/>
<path d="M236 670.894C236.691 669.592 238.558 669.592 239.249 670.894L242.138 676.341C242.311 676.666 242.577 676.932 242.902 677.104L248.351 679.992C249.654 680.683 249.654 682.549 248.351 683.24L242.902 686.128C242.577 686.3 242.311 686.566 242.138 686.891L239.249 692.338C238.558 693.64 236.691 693.64 236 692.338L233.111 686.891C232.938 686.566 232.673 686.3 232.347 686.128L226.898 683.24C225.595 682.549 225.595 680.683 226.898 679.992L232.347 677.104C232.673 676.932 232.938 676.666 233.111 676.341L236 670.894Z" fill="#FBBF78"/>
<ellipse cx="147.943" cy="250.858" rx="2.60735" ry="3.31538" fill="#9F86EE"/>
<path d="M106.281 629.476C107.031 627.677 109.059 627.677 109.809 629.476L112.947 637.001C113.134 637.449 113.422 637.817 113.775 638.054L119.693 642.044C121.108 642.998 121.108 645.576 119.693 646.53L113.775 650.519C113.422 650.757 113.134 651.124 112.947 651.573L109.809 659.098C109.059 660.897 107.031 660.897 106.281 659.098L103.144 651.573C102.957 651.124 102.668 650.757 102.315 650.519L96.3973 646.53C94.9821 645.576 94.9821 642.998 96.3973 642.044L102.315 638.054C102.668 637.817 102.957 637.449 103.144 637.001L106.281 629.476Z" fill="#9D84E8"/>
<path d="M307.945 344.35C308.695 342.55 310.723 342.55 311.473 344.35L314.611 351.874C314.798 352.323 315.087 352.69 315.439 352.928L321.357 356.917C322.772 357.871 322.772 360.45 321.357 361.404L315.439 365.393C315.087 365.631 314.798 365.998 314.611 366.447L311.473 373.971C310.723 375.771 308.695 375.771 307.945 373.971L304.808 366.447C304.621 365.998 304.332 365.631 303.979 365.393L298.061 361.404C296.646 360.45 296.646 357.871 298.061 356.917L303.979 352.928C304.332 352.69 304.621 352.323 304.808 351.874L307.945 344.35Z" fill="#9D84E8"/>
</g>
<defs>
<linearGradient id="paint0_linear_675_10758" x1="0" y1="0" x2="83.8871" y2="0" gradientUnits="userSpaceOnUse">
<stop stop-color="#5F508D"/>
<stop offset="1" stop-color="#233654"/>
</linearGradient>
<linearGradient id="paint1_linear_675_10758" x1="0" y1="0" x2="210.921" y2="0" gradientUnits="userSpaceOnUse">
<stop stop-color="#5F508D"/>
<stop offset="1" stop-color="#233654"/>
</linearGradient>
<linearGradient id="paint2_linear_675_10758" x1="0" y1="0" x2="83.8871" y2="0" gradientUnits="userSpaceOnUse">
<stop stop-color="#5F508D"/>
<stop offset="1" stop-color="#233654"/>
</linearGradient>
<clipPath id="clip0_675_10758">
<rect width="1920" height="891" fill="white"/>
</clipPath>
</defs>
</svg>
