<svg width="41" height="40" viewBox="0 0 41 40" fill="none" xmlns="http://www.w3.org/2000/svg">
    <path
            d="M20.5 40C31.5457 40 40.5 31.0457 40.5 20C40.5 8.95431 31.5457 0 20.5 0C9.45431 0 0.5 8.95431 0.5 20C0.5 31.0457 9.45431 40 20.5 40Z"
            fill="#665CAC" />
    <path
            d="M22.6043 9.47363H18.3938C16.4396 9.47363 14.5654 10.2499 13.1836 11.6318C11.8017 13.0136 11.0254 14.8878 11.0254 16.8421V19.9999C11.0248 21.3948 11.4202 22.7613 12.1655 23.9403C12.9109 25.1194 13.9756 26.0627 15.2359 26.6605V30.1789C15.2372 30.2475 15.2584 30.3143 15.2971 30.371C15.3358 30.4278 15.3901 30.472 15.4536 30.4982C15.517 30.5245 15.5867 30.5317 15.6542 30.5189C15.7216 30.5061 15.7839 30.4739 15.8333 30.4263L18.8912 27.3684H22.6043C24.5586 27.3684 26.4328 26.5921 27.8146 25.2102C29.1964 23.8284 29.9728 21.9542 29.9728 19.9999V16.8421C29.9728 14.8878 29.1964 13.0136 27.8146 11.6318C26.4328 10.2499 24.5586 9.47363 22.6043 9.47363ZM25.3622 23.2842L24.3096 24.3368C23.1886 25.4342 20.2622 24.1815 17.6833 21.5473C15.1043 18.9131 13.9728 15.9578 15.0517 14.8605L16.1043 13.8078C16.3106 13.6227 16.5789 13.5215 16.8561 13.5245C17.1333 13.5274 17.3994 13.6341 17.6017 13.8236L19.1385 15.4026C19.2606 15.5285 19.3486 15.6835 19.3943 15.8528C19.44 16.0221 19.4419 16.2003 19.3998 16.3706C19.3577 16.5408 19.273 16.6976 19.1536 16.8261C19.0343 16.9546 18.8842 17.0507 18.7175 17.1052C18.4704 17.181 18.262 17.3491 18.1356 17.5745C18.0092 17.7999 17.9744 18.0654 18.0385 18.3157C18.3017 19.4842 19.7859 20.9473 20.8912 21.2342C21.1404 21.2935 21.4026 21.26 21.6289 21.1399C21.8551 21.0197 22.0298 20.8212 22.1201 20.5815C22.1785 20.4144 22.2789 20.265 22.4117 20.1479C22.5445 20.0308 22.7053 19.9498 22.8784 19.9128C23.0516 19.8758 23.2313 19.884 23.4004 19.9366C23.5695 19.9892 23.7222 20.0844 23.8438 20.2131L25.378 21.7921C25.5623 21.9978 25.6629 22.265 25.6599 22.5412C25.657 22.8173 25.5508 23.0824 25.3622 23.2842ZM21.457 14.4736C21.3523 14.4731 21.2477 14.4793 21.1438 14.4921C21.098 14.4971 21.0517 14.493 21.0075 14.4801C20.9633 14.4672 20.922 14.4457 20.8861 14.4169C20.8502 14.3881 20.8203 14.3524 20.7981 14.3121C20.776 14.2717 20.762 14.2273 20.757 14.1815C20.752 14.1357 20.756 14.0894 20.7689 14.0452C20.7818 14.001 20.8033 13.9597 20.8321 13.9238C20.861 13.8879 20.8966 13.858 20.937 13.8358C20.9774 13.8137 21.0217 13.7997 21.0675 13.7947C21.1968 13.7798 21.3268 13.7728 21.457 13.7736C22.3883 13.7729 23.2817 14.142 23.941 14.7998C24.6003 15.4576 24.9714 16.3502 24.9728 17.2815C24.9736 17.4117 24.9666 17.5417 24.9517 17.671C24.9467 17.7168 24.9327 17.7611 24.9106 17.8015C24.8884 17.8419 24.8585 17.8775 24.8226 17.9064C24.7867 17.9352 24.7454 17.9567 24.7012 17.9696C24.657 17.9825 24.6107 17.9865 24.5649 17.9815C24.5191 17.9765 24.4747 17.9625 24.4343 17.9404C24.3939 17.9182 24.3583 17.8883 24.3295 17.8524C24.3006 17.8165 24.2792 17.7752 24.2663 17.731C24.2534 17.6868 24.2493 17.6405 24.2543 17.5947C24.2658 17.4907 24.2719 17.3862 24.2728 17.2815C24.2714 16.5359 23.974 15.8213 23.446 15.2948C22.918 14.7683 22.2026 14.4729 21.457 14.4736ZM23.5622 17.2815C23.5546 17.3695 23.5143 17.4513 23.4493 17.511C23.3842 17.5706 23.2992 17.6037 23.2109 17.6037C23.1227 17.6037 23.0376 17.5706 22.9726 17.511C22.9075 17.4513 22.8672 17.3695 22.8596 17.2815C22.8596 16.9095 22.7118 16.5528 22.4488 16.2897C22.1857 16.0267 21.829 15.8789 21.457 15.8789C21.4083 15.8831 21.3592 15.8772 21.313 15.8614C21.2667 15.8457 21.2242 15.8205 21.1882 15.7875C21.1522 15.7544 21.1234 15.7143 21.1037 15.6695C21.0841 15.6248 21.0739 15.5765 21.0739 15.5276C21.0739 15.4787 21.0841 15.4304 21.1037 15.3856C21.1234 15.3409 21.1522 15.3007 21.1882 15.2677C21.2242 15.2347 21.2667 15.2095 21.313 15.1937C21.3592 15.178 21.4083 15.172 21.457 15.1763C22.0153 15.1763 22.5508 15.3981 22.9456 15.7929C23.3404 16.1877 23.5622 16.7232 23.5622 17.2815ZM26.2385 18.421C26.2308 18.4688 26.2132 18.5146 26.187 18.5553C26.1607 18.5961 26.1264 18.631 26.086 18.6578C26.0457 18.6847 26.0002 18.703 25.9525 18.7115C25.9048 18.72 25.8558 18.7186 25.8087 18.7074C25.7616 18.6961 25.7172 18.6753 25.6785 18.6462C25.6398 18.617 25.6075 18.5802 25.5836 18.538C25.5597 18.4958 25.5448 18.4492 25.5398 18.401C25.5347 18.3528 25.5397 18.304 25.5543 18.2578C25.6303 17.9398 25.6683 17.6138 25.6675 17.2868C25.6675 16.1701 25.2239 15.0991 24.4343 14.3095C23.6446 13.5199 22.5737 13.0763 21.457 13.0763C21.3491 13.0763 21.2386 13.0763 21.1307 13.0763C21.0847 13.0797 21.0385 13.0741 20.9947 13.0597C20.9509 13.0453 20.9104 13.0224 20.8755 12.9924C20.8049 12.9317 20.7613 12.8454 20.7543 12.7526C20.7474 12.6598 20.7775 12.568 20.8382 12.4974C20.8989 12.4268 20.9852 12.3832 21.078 12.3763C21.2043 12.3657 21.3307 12.3605 21.457 12.3605C22.7607 12.3626 24.0104 12.882 24.9316 13.8046C25.8527 14.7273 26.3701 15.9777 26.3701 17.2815C26.3703 17.6651 26.3261 18.0475 26.2385 18.421Z"
            fill="white" />
</svg>