<svg width="180" height="84" viewBox="0 0 180 84" fill="none" xmlns="http://www.w3.org/2000/svg">
<ellipse cx="41.8104" cy="42" rx="28.499" ry="28.6282" fill="url(#paint0_linear_801_11439)"/>
<path fill-rule="evenodd" clip-rule="evenodd" d="M9.64521 52.179C10.1367 51.5687 11.0817 51.6609 11.4706 52.3412C11.7185 52.7749 11.6521 53.3183 11.3217 53.6929C9.38613 55.8878 8.55111 57.5955 9.10732 58.5685C10.8936 61.6933 26.3517 56.0569 43.634 45.9794C44.2301 45.6318 44.8206 45.2835 45.4051 44.9347C45.6086 44.8133 45.7257 44.5891 45.7257 44.3522V44.3522C45.7257 40.3401 48.9634 37.0877 52.9573 37.0877V37.0877C55.0979 37.0877 57.4177 37.1516 59.1419 35.8831C67.7584 29.5439 72.8758 24.1454 71.6921 22.0747C71.1617 21.1469 69.4261 20.9914 66.7952 21.4953C66.3175 21.5868 65.8288 21.3746 65.5874 20.9523C65.2097 20.2916 65.597 19.4551 66.3499 19.3445C71.5229 18.5844 75.1923 19.2196 76.4786 21.4698C78.8879 25.6844 72.2588 34.3788 60.7187 43.2197C60.3709 43.4861 60.1889 43.9141 60.1889 44.3522V44.3522C60.1889 48.3642 56.9512 51.6166 52.9573 51.6166C52.7575 51.6166 52.5596 51.6084 52.3639 51.5925C50.5831 51.4472 48.6862 51.3722 47.1427 52.2722V52.2722C27.6979 63.6107 9.30573 68.2034 6.06264 62.5301C4.73217 60.2027 6.15805 56.509 9.64521 52.179Z" fill="white"/>
<ellipse cx="52.9573" cy="44.3522" rx="3.61581" ry="3.6322" fill="#70AF09"/>
<g opacity="0.32">
<path d="M27.2061 32.209C25.4522 36.5595 26.0055 41.1472 23.8543 40.272C21.703 39.3968 21.3809 35.1606 23.1348 30.8102C24.8888 26.4597 28.0545 23.6425 30.2058 24.5176C32.357 25.3928 28.96 27.8586 27.2061 32.209Z" fill="#E5E5E5"/>
<path d="M25.8557 44.5939C26.0124 46.0266 25.3521 47.2749 24.3808 47.3821C23.4095 47.4893 22.4951 46.4148 22.3384 44.9821C22.1817 43.5495 22.8421 42.3012 23.8133 42.194C24.7846 42.0868 25.699 43.1613 25.8557 44.5939Z" fill="#E5E5E5"/>
</g>
<path d="M33.3962 63.8096C32.4059 63.2348 32.8806 62.2715 35.286 61.4707C40.3581 60.3523 39.5022 62.6132 46.801 61.7433C54.0998 60.8734 57.9476 57.8509 59.8857 55.8625C61.4362 54.2719 62.8693 52.1194 62.8006 52.8788C62.4707 54.4943 59.8069 58.7526 51.7906 62.8618C41.7702 67.9982 34.9148 64.6909 33.3962 63.8096Z" fill="#080F1B" fill-opacity="0.11"/>
<path d="M65.6283 26.1447C66.566 25.5205 66.828 24.2507 66.1468 23.3535C61.7954 17.6224 55.5606 13.5902 48.5178 12.0012C40.8123 10.2626 32.7361 11.5834 25.9774 15.6872C19.2186 19.7911 14.3007 26.3604 12.2514 34.0219C10.3797 41.0199 11.0336 48.4343 14.0574 54.9652C14.5332 55.9929 15.7873 56.3536 16.779 55.8066C17.7653 55.2626 18.1181 54.0261 17.6548 52.9994C15.1268 47.3979 14.5978 41.0669 16.1973 35.0869C17.973 28.4481 22.2345 22.7558 28.0909 19.1997C33.9474 15.6437 40.9455 14.4993 47.6224 16.0057C53.6308 17.3613 58.9604 20.7691 62.7221 25.6135C63.4171 26.5085 64.685 26.7727 65.6283 26.1447Z" fill="white"/>
<path d="M24.3533 64.7158C23.6646 65.612 23.8247 66.9033 24.7592 67.5331C29.142 70.4866 34.2215 72.2583 39.5072 72.659C45.4714 73.1111 51.4367 71.7979 56.6661 68.8817C61.8955 65.9656 66.1598 61.5741 68.9319 56.2502C71.3887 51.5319 72.5781 46.2643 72.4005 40.9657C72.3627 39.8359 71.3564 39.0165 70.2351 39.1297C69.1112 39.2432 68.2988 40.2508 68.3249 41.3837C68.4285 45.8804 67.397 50.3425 65.3114 54.3479C62.9094 58.9612 59.2144 62.7664 54.683 65.2933C50.1517 67.8202 44.9827 68.958 39.8146 68.5663C35.3275 68.2261 31.0118 66.7457 27.2673 64.2792C26.3242 63.6579 25.0435 63.8177 24.3533 64.7158Z" fill="white"/>
<path d="M89.2383 63.6183C88.5396 63.6183 88.1903 63.4311 88.1903 63.0568V52.0032C88.1903 51.7576 88.2427 51.5821 88.3475 51.4768C88.4639 51.3599 88.6444 51.3014 88.889 51.3014H94.6354C94.8217 51.3014 94.9556 51.3716 95.0371 51.5119C95.1186 51.6523 95.1593 51.8745 95.1593 52.1787V52.7226C95.1593 53.0267 95.1186 53.2489 95.0371 53.3893C94.9556 53.5297 94.8217 53.5998 94.6354 53.5998H90.8801V56.6878H94.5131C94.6994 56.6878 94.8333 56.758 94.9148 56.8984C94.9963 57.0387 95.0371 57.261 95.0371 57.5651V58.109C95.0371 58.4131 94.9963 58.6354 94.9148 58.7757C94.8333 58.9161 94.6994 58.9863 94.5131 58.9863H90.8801V63.0568C90.8801 63.4311 90.5308 63.6183 89.8321 63.6183H89.2383Z" fill="#7FB02E"/>
<path d="M100.258 63.6183C99.5596 63.6183 99.2103 63.4311 99.2103 63.0568V52.0032C99.2103 51.7576 99.2627 51.5821 99.3675 51.4768C99.4839 51.3599 99.6644 51.3014 99.9089 51.3014H103.315C106.214 51.3014 107.664 52.4009 107.664 54.5999C107.664 55.255 107.478 55.8281 107.105 56.3194C106.744 56.799 106.249 57.1557 105.62 57.3897V57.4598C105.842 57.5417 106.069 57.7406 106.302 58.0564C106.534 58.3605 106.727 58.6997 106.878 59.074L108.415 62.934C108.473 63.0861 108.502 63.1972 108.502 63.2674C108.502 63.3726 108.415 63.4604 108.24 63.5306C108.066 63.589 107.804 63.6183 107.454 63.6183H106.738C106.168 63.6183 105.83 63.4955 105.725 63.2498L104.345 59.8285C104.147 59.4425 103.932 59.1734 103.699 59.0214C103.478 58.8576 103.105 58.7757 102.581 58.7757H101.9V63.0568C101.9 63.4311 101.551 63.6183 100.852 63.6183H100.258ZM103.559 56.4422C103.92 56.4422 104.235 56.296 104.503 56.0036C104.77 55.7111 104.904 55.3544 104.904 54.9333C104.904 54.5239 104.77 54.2022 104.503 53.9683C104.246 53.7227 103.891 53.5998 103.437 53.5998H101.9V56.4422H103.559Z" fill="#7FB02E"/>
<path d="M113.067 63.5832C112.823 63.5832 112.642 63.5306 112.526 63.4253C112.421 63.3083 112.369 63.127 112.369 62.8814V52.0032C112.369 51.7576 112.421 51.5821 112.526 51.4768C112.642 51.3599 112.823 51.3014 113.067 51.3014H119.198C119.384 51.3014 119.518 51.3716 119.6 51.5119C119.681 51.6523 119.722 51.8745 119.722 52.1787V52.7226C119.722 53.0267 119.681 53.2489 119.6 53.3893C119.518 53.5297 119.384 53.5998 119.198 53.5998H115.058V56.1439H118.726C118.913 56.1439 119.046 56.2141 119.128 56.3545C119.209 56.4948 119.25 56.7171 119.25 57.0212V57.5651C119.25 57.8692 119.209 58.0915 119.128 58.2318C119.046 58.3722 118.913 58.4424 118.726 58.4424H115.058V61.2847H119.215C119.402 61.2847 119.536 61.3549 119.617 61.4953C119.699 61.6356 119.739 61.8579 119.739 62.162V62.7059C119.739 63.01 119.699 63.2323 119.617 63.3726C119.536 63.513 119.402 63.5832 119.215 63.5832H113.067Z" fill="#7FB02E"/>
<path d="M124.96 63.5832C124.715 63.5832 124.535 63.5306 124.418 63.4253C124.314 63.3083 124.261 63.127 124.261 62.8814V52.0032C124.261 51.7576 124.314 51.5821 124.418 51.4768C124.535 51.3599 124.715 51.3014 124.96 51.3014H131.091C131.277 51.3014 131.411 51.3716 131.492 51.5119C131.574 51.6523 131.615 51.8745 131.615 52.1787V52.7226C131.615 53.0267 131.574 53.2489 131.492 53.3893C131.411 53.5297 131.277 53.5998 131.091 53.5998H126.951V56.1439H130.619C130.805 56.1439 130.939 56.2141 131.021 56.3545C131.102 56.4948 131.143 56.7171 131.143 57.0212V57.5651C131.143 57.8692 131.102 58.0915 131.021 58.2318C130.939 58.3722 130.805 58.4424 130.619 58.4424H126.951V61.2847H131.108C131.294 61.2847 131.428 61.3549 131.51 61.4953C131.591 61.6356 131.632 61.8579 131.632 62.162V62.7059C131.632 63.01 131.591 63.2323 131.51 63.3726C131.428 63.513 131.294 63.5832 131.108 63.5832H124.96Z" fill="#7FB02E"/>
<path d="M146.306 63.6183C145.735 63.6183 145.409 63.4955 145.328 63.2498L141.555 51.9681C141.509 51.8044 141.485 51.6991 141.485 51.6523C141.485 51.395 141.84 51.2663 142.551 51.2663H143.162C143.744 51.2663 144.088 51.4359 144.193 51.7751L146.358 58.7407C146.58 59.4542 146.708 59.9864 146.743 60.3373H146.813C146.847 59.9864 146.976 59.4542 147.197 58.7407L149.432 51.7751C149.549 51.4359 149.892 51.2663 150.463 51.2663H150.969C151.668 51.2663 152.017 51.395 152.017 51.6523C152.017 51.7342 152 51.8394 151.965 51.9681L148.192 63.2498C148.111 63.4955 147.785 63.6183 147.214 63.6183H146.306Z" fill="#7FB02E"/>
<path d="M156.754 63.6183C156.055 63.6183 155.706 63.4311 155.706 63.0568V52.0032C155.706 51.7576 155.759 51.5821 155.863 51.4768C155.98 51.3599 156.16 51.3014 156.405 51.3014H160.073C161.167 51.3014 162.134 51.5704 162.972 52.1085C163.81 52.6348 164.23 53.6466 164.23 55.1438C164.23 56.1732 163.985 56.9744 163.496 57.5476C163.007 58.109 162.46 58.4892 161.854 58.688C161.249 58.8869 160.713 58.9863 160.247 58.9863H158.396V63.0568C158.396 63.4311 158.047 63.6183 157.348 63.6183H156.754ZM159.95 56.6703C160.37 56.6703 160.725 56.5592 161.016 56.3369C161.319 56.1147 161.47 55.717 161.47 55.1438C161.47 54.5707 161.319 54.173 161.016 53.9507C160.725 53.7168 160.37 53.5998 159.95 53.5998H158.396V56.6703H159.95Z" fill="#7FB02E"/>
<path d="M169.073 63.6183C168.375 63.6183 168.025 63.4311 168.025 63.0568V51.8278C168.025 51.4534 168.375 51.2663 169.073 51.2663H169.824C170.104 51.2663 170.337 51.3014 170.523 51.3716C170.709 51.4301 170.861 51.5529 170.977 51.74L174.907 57.8283C175.14 58.1675 175.349 58.5126 175.536 58.8635L175.606 58.8459C175.582 58.5769 175.571 58.1792 175.571 57.6528V51.8278C175.571 51.4534 175.92 51.2663 176.619 51.2663H177.125C177.824 51.2663 178.173 51.4534 178.173 51.8278V63.0568C178.173 63.4311 177.824 63.6183 177.125 63.6183H176.461C176.182 63.6183 175.949 63.589 175.763 63.5306C175.577 63.4604 175.425 63.3317 175.309 63.1446L171.291 56.9686C171.059 56.6294 170.849 56.2843 170.663 55.9334L170.593 55.9509C170.616 56.22 170.628 56.6177 170.628 57.144V63.0568C170.628 63.4311 170.278 63.6183 169.58 63.6183H169.073Z" fill="#7FB02E"/>
<path d="M90.1643 45.1161C88.8483 45.1161 88.1903 44.7636 88.1903 44.0585V23.2375C88.1903 22.7749 88.289 22.4444 88.4864 22.2461C88.7057 22.0257 89.0457 21.9156 89.5063 21.9156H96.4153C98.477 21.9156 100.298 22.4223 101.877 23.4358C103.456 24.4273 104.246 26.3331 104.246 29.1533C104.246 31.0922 103.785 32.6015 102.864 33.6811C101.943 34.7387 100.912 35.4547 99.7711 35.8293C98.6306 36.2038 97.6216 36.3911 96.7443 36.3911H93.2569V44.0585C93.2569 44.7636 92.5989 45.1161 91.2829 45.1161H90.1643ZM96.185 32.0286C96.9746 32.0286 97.6436 31.8193 98.1919 31.4007C98.7622 30.9821 99.0473 30.233 99.0473 29.1533C99.0473 28.0737 98.7622 27.3246 98.1919 26.906C97.6436 26.4653 96.9746 26.245 96.185 26.245H93.2569V32.0286H96.185Z" fill="white"/>
<path d="M111.56 45.3144C108.357 45.3144 106.756 43.5297 106.756 39.9604V21.1885C106.756 20.4834 107.414 20.1309 108.73 20.1309H109.651C110.967 20.1309 111.625 20.4834 111.625 21.1885V40.0265C111.625 40.5333 111.713 40.8968 111.889 41.1171C112.086 41.3375 112.393 41.4476 112.81 41.4476C112.919 41.4476 113.062 41.4256 113.238 41.3815C113.435 41.3375 113.588 41.3154 113.698 41.3154C113.896 41.3154 114.071 41.4807 114.225 41.8112C114.378 42.1417 114.499 42.5052 114.586 42.9018C114.674 43.2984 114.718 43.5628 114.718 43.695C114.718 44.7746 113.665 45.3144 111.56 45.3144Z" fill="white"/>
<path d="M120.702 45.3144C119.013 45.3144 117.774 44.8737 116.984 43.9924C116.216 43.1111 115.832 41.9434 115.832 40.4892C115.832 38.7266 116.469 37.2614 117.741 36.0937C119.035 34.9259 121.546 34.3421 125.275 34.3421V33.2514C125.275 32.6125 125.066 32.1388 124.65 31.8303C124.255 31.5219 123.608 31.3676 122.709 31.3676C121.963 31.3676 121.305 31.4448 120.735 31.599C120.186 31.7532 119.693 31.9295 119.254 32.1278C118.815 32.3261 118.563 32.4252 118.497 32.4252C118.278 32.4252 118.037 32.26 117.774 31.9295C117.51 31.599 117.28 31.2244 117.083 30.8058C116.885 30.3651 116.787 30.0236 116.787 29.7813C116.787 29.4067 117.061 29.0432 117.609 28.6907C118.157 28.3381 118.914 28.0517 119.879 27.8314C120.844 27.6111 121.908 27.5009 123.071 27.5009C125.549 27.5009 127.348 27.9966 128.466 28.9881C129.585 29.9575 130.144 31.3015 130.144 33.0201V39.2333C130.144 40.2469 130.166 41.018 130.21 41.5468C130.276 42.0756 130.352 42.6594 130.44 43.2984C130.506 43.5848 130.539 43.8272 130.539 44.0255C130.539 44.378 130.089 44.6424 129.19 44.8187C128.313 44.9949 127.534 45.0831 126.854 45.0831C126.459 45.0831 126.185 44.9288 126.032 44.6204C125.878 44.2899 125.757 43.9373 125.67 43.5628C125.604 43.1882 125.56 42.9349 125.538 42.8027C125.406 43.045 125.143 43.3645 124.748 43.7611C124.354 44.1356 123.805 44.4882 123.103 44.8187C122.402 45.1491 121.601 45.3144 120.702 45.3144ZM122.314 41.4476C122.928 41.4476 123.509 41.2493 124.058 40.8528C124.606 40.4562 125.012 39.9604 125.275 39.3655V37.5478C122.204 37.5478 120.669 38.3631 120.669 39.9935C120.669 40.4341 120.811 40.7867 121.097 41.0511C121.382 41.3154 121.787 41.4476 122.314 41.4476Z" fill="white"/>
<path d="M136.392 45.1161C135.076 45.1161 134.418 44.7636 134.418 44.0585V33.5819C134.418 32.6125 134.386 31.8744 134.32 31.3676C134.276 30.8389 134.21 30.255 134.122 29.616C134.057 29.3076 134.024 29.0762 134.024 28.922C134.024 28.5695 134.462 28.3051 135.34 28.1288C136.239 27.9526 137.029 27.8644 137.708 27.8644C138.103 27.8644 138.377 28.0187 138.531 28.3271C138.684 28.6135 138.794 28.933 138.86 29.2855C138.948 29.6381 139.003 29.8804 139.024 30.0126C139.551 29.3076 140.253 28.7127 141.13 28.228C142.007 27.7432 142.94 27.5009 143.927 27.5009C145.572 27.5009 146.789 27.9415 147.578 28.8229C148.368 29.6821 148.763 31.0261 148.763 32.8549V44.0585C148.763 44.7636 148.105 45.1161 146.789 45.1161H145.868C144.552 45.1161 143.894 44.7636 143.894 44.0585V33.5819C143.894 32.8989 143.74 32.3922 143.433 32.0617C143.126 31.7092 142.622 31.5329 141.92 31.5329C141.327 31.5329 140.801 31.7312 140.34 32.1278C139.902 32.5023 139.551 32.943 139.288 33.4497V44.0585C139.288 44.7636 138.63 45.1161 137.314 45.1161H136.392Z" fill="white"/>
<path d="M160.661 45.3144C157.766 45.3144 155.605 44.5432 154.18 43.001C152.776 41.4366 152.074 39.2774 152.074 36.5233C152.074 33.4167 152.776 31.1363 154.18 29.6821C155.605 28.228 157.568 27.5009 160.069 27.5009C162.503 27.5009 164.291 28.2941 165.431 29.8804C166.594 31.4668 167.175 33.5158 167.175 36.0276C167.175 36.292 166.945 36.6886 166.484 37.2173C166.045 37.7241 165.716 37.9775 165.497 37.9775H157.108C157.217 39.2333 157.59 40.1257 158.226 40.6545C158.862 41.1832 159.751 41.4476 160.891 41.4476C161.505 41.4476 162.065 41.3815 162.569 41.2493C163.074 41.0951 163.6 40.9078 164.148 40.6875C164.499 40.5112 164.74 40.4231 164.872 40.4231C165.091 40.4231 165.333 40.5884 165.596 40.9189C165.881 41.2273 166.111 41.5909 166.287 42.0095C166.484 42.4061 166.583 42.7145 166.583 42.9349C166.583 43.4416 166.243 43.8823 165.563 44.2568C164.883 44.6093 164.071 44.8737 163.128 45.05C162.185 45.2263 161.363 45.3144 160.661 45.3144ZM162.437 34.7056C162.437 33.6921 162.24 32.8879 161.845 32.293C161.45 31.6761 160.858 31.3676 160.069 31.3676C158.446 31.3676 157.459 32.4803 157.108 34.7056H162.437Z" fill="white"/>
<path d="M175.764 45.3144C172.562 45.3144 170.961 43.5297 170.961 39.9604V31.632H170.434C170.083 31.632 169.831 31.4998 169.678 31.2354C169.524 30.9711 169.447 30.5524 169.447 29.9796V29.4177C169.447 28.8449 169.524 28.4263 169.678 28.1619C169.831 27.8975 170.083 27.7653 170.434 27.7653H170.961L171.388 24.6256C171.498 23.9206 172.09 23.568 173.165 23.568H174.185C175.281 23.568 175.83 23.9206 175.83 24.6256V27.7653H177.442C177.793 27.7653 178.045 27.8975 178.199 28.1619C178.352 28.4263 178.429 28.8449 178.429 29.4177V29.9796C178.429 30.5524 178.352 30.9711 178.199 31.2354C178.045 31.4998 177.793 31.632 177.442 31.632H175.83V40.0265C175.83 40.5333 175.918 40.8968 176.093 41.1171C176.29 41.3375 176.597 41.4476 177.014 41.4476C177.124 41.4476 177.266 41.4256 177.442 41.3815C177.639 41.3375 177.793 41.3154 177.903 41.3154C178.1 41.3154 178.275 41.4807 178.429 41.8112C178.582 42.1417 178.703 42.5052 178.791 42.9018C178.879 43.2984 178.922 43.5628 178.922 43.695C178.922 44.7746 177.87 45.3144 175.764 45.3144Z" fill="white"/>
<defs>
<linearGradient id="paint0_linear_801_11439" x1="11.5875" y1="-6.96146" x2="54.9911" y2="66.6516" gradientUnits="userSpaceOnUse">
<stop offset="0.394669" stop-color="#FF3A3A"/>
<stop offset="0.72037" stop-color="#D64D12"/>
<stop offset="0.749987" stop-color="#70AF09"/>
</linearGradient>
</defs>
</svg>
